<svg width="190" height="48" viewBox="0 0 190 48" fill="none" xmlns="http://www.w3.org/2000/svg">
<path fill-rule="evenodd" clip-rule="evenodd" d="M31.68 15.18L16.1306 19.92L10.8471 15.7809L16.0936 25.2258V25.1742L31.68 22.8982V15.18ZM31.68 32.524L16.0936 34.8L13.44 30.0229V43.68H31.68L31.68 32.524ZM10.68 48H10.08H4.32H0.96H1.56396e-06L0 1.38478e-06L4.32 0L10.08 1.38478e-06H31.68H36V4.32L36 43.68V48H31.68H10.68ZM31.68 4.32H10.08L16.1306 8.82L31.68 4.32Z" fill="black"/>
<path d="M55.7611 43.8228H56.3138C56.8846 43.8228 57.4736 43.7431 57.9357 43.3247C58.3615 42.9361 58.5881 42.3184 58.5881 41.7107C58.5881 41.0432 58.3253 40.3857 57.8179 39.9972C57.3195 39.6186 56.7125 39.5986 56.1235 39.5986H55V47.1105H55.7611V43.8228ZM55.7611 40.3757H56.042C56.9299 40.3757 57.8269 40.4654 57.8269 41.6908C57.8269 42.7668 57.1112 43.0457 56.2685 43.0457H55.7611V40.3757Z" fill="black"/>
<path d="M67.331 42.6472V39.5986H66.5699V47.1105H67.331V43.4243H70.8285V47.1105H71.5896V39.5986H70.8285V42.6472H67.331Z" fill="black"/>
<path d="M83.1952 39.4691C81.2471 39.4691 79.6343 41.2126 79.6343 43.3645C79.6343 45.5264 81.2471 47.24 83.1952 47.24C85.1432 47.24 86.756 45.5264 86.756 43.3645C86.756 41.2126 85.1432 39.4691 83.1952 39.4691ZM83.1952 40.2462C84.7627 40.2462 85.9949 41.6509 85.9949 43.3546C85.9949 45.0482 84.7446 46.4629 83.1952 46.4629C81.6458 46.4629 80.3954 45.0482 80.3954 43.3546C80.3954 41.6509 81.6277 40.2462 83.1952 40.2462Z" fill="black"/>
<path d="M96.5806 40.3757H98.2478V39.5986H94.1705V40.3757H95.8195V47.1105H96.5806V40.3757Z" fill="black"/>
<path d="M109.218 39.4691C107.27 39.4691 105.657 41.2126 105.657 43.3645C105.657 45.5264 107.27 47.24 109.218 47.24C111.166 47.24 112.779 45.5264 112.779 43.3645C112.779 41.2126 111.166 39.4691 109.218 39.4691ZM109.218 40.2462C110.785 40.2462 112.018 41.6509 112.018 43.3546C112.018 45.0482 110.767 46.4629 109.218 46.4629C107.668 46.4629 106.418 45.0482 106.418 43.3546C106.418 41.6509 107.65 40.2462 109.218 40.2462Z" fill="black"/>
<path d="M124.298 43.3346V44.1117H126.327C126.327 45.5065 125.077 46.4629 123.89 46.4629C123.174 46.4629 122.449 46.0544 121.951 45.5065C121.444 44.9386 121.154 44.1815 121.154 43.3844C121.154 41.6908 122.386 40.2462 123.944 40.2462C124.95 40.2462 125.72 40.7742 126.291 41.6609L126.844 41.093C126.119 40.0569 125.149 39.4691 123.953 39.4691C121.987 39.4691 120.393 41.2226 120.393 43.3745C120.393 45.4866 121.987 47.24 123.908 47.24C124.859 47.24 125.811 46.7817 126.436 45.9847C127.061 45.1877 127.161 44.3508 127.143 43.3346H124.298Z" fill="black"/>
<path d="M135.962 40.3757H136.188C137.103 40.3757 137.928 40.4953 137.928 41.7307C137.928 42.8963 137.058 43.0756 136.197 43.0756H135.962V40.3757ZM135.962 43.8128H136.152L138.218 47.1105H139.151L136.977 43.7431C138.028 43.6435 138.689 42.8265 138.689 41.6709C138.689 39.9772 137.484 39.5986 136.188 39.5986H135.201V47.1105H135.962V43.8128Z" fill="black"/>
<path d="M151.03 44.9785L151.836 47.1105H152.679L149.607 39.24L146.454 47.1105H147.288L148.112 44.9785H151.03ZM150.731 44.2014H148.42L149.589 41.1927L150.731 44.2014Z" fill="black"/>
<path d="M161.162 43.8228H161.714C162.285 43.8228 162.874 43.7431 163.336 43.3247C163.762 42.9361 163.988 42.3184 163.988 41.7107C163.988 41.0432 163.726 40.3857 163.218 39.9972C162.72 39.6186 162.113 39.5986 161.524 39.5986H160.4V47.1105H161.162V43.8228ZM161.162 40.3757H161.442C162.33 40.3757 163.227 40.4654 163.227 41.6908C163.227 42.7668 162.512 43.0457 161.669 43.0457H161.162V40.3757Z" fill="black"/>
<path d="M172.731 42.6472V39.5986H171.97V47.1105H172.731V43.4243H176.229V47.1105H176.99V39.5986H176.229V42.6472H172.731Z" fill="black"/>
<path d="M187.001 43.8826V47.1105H187.762V43.8826L190 39.5986H189.121L187.381 42.9461L185.642 39.5986H184.763L187.001 43.8826Z" fill="black"/>
<path fill-rule="evenodd" clip-rule="evenodd" d="M163.975 33.6191L166.959 33.6324L158.757 14.6L150.703 33.6324H153.649L158.757 21.5305L163.975 33.6191ZM134.473 26.3315L129.906 15.0364L129.734 14.6132L124.86 33.4817L127.585 33.4949L130.176 23.197C130.724 24.5284 131.424 26.2566 132.276 28.3816L132.779 29.6248C132.975 30.1098 133.147 30.533 133.295 30.8946C133.688 31.8645 134.048 32.7506 134.375 33.553H134.572C134.899 32.7506 135.259 31.8645 135.652 30.8946C135.799 30.533 135.967 30.1098 136.155 29.6248L136.659 28.3816C137.518 26.2566 138.222 24.5284 138.771 23.197L141.349 33.4949L144.087 33.4817L139.2 14.6132L139.041 15.0364L134.473 26.3315ZM173.933 14.8664V33.5357H176.557V21.2971L189.24 34.6V16.0552H186.616V28.2033L173.933 14.8664ZM63.9243 18.5346H57.8644V22.7349H63.7103V25.2144H57.8644V33.5357H55.24V16.0552H63.9243V18.5346ZM77.4813 26.0861L82.8654 33.5357H79.6552L74.6879 26.3805H74.2149V33.5357H71.5904V16.0552H74.6654C76.9632 16.0552 78.6227 16.4892 79.644 17.3572C80.7703 18.3233 81.3335 19.5988 81.3335 21.1839C81.3335 22.4217 80.9806 23.4859 80.2747 24.3766C79.5689 25.2672 78.6377 25.8371 77.4813 26.0861ZM74.2149 24.0822H75.0484C77.5339 24.0822 78.7767 23.1274 78.7767 21.2178C78.7767 19.429 77.5677 18.5346 75.1497 18.5346H74.2149V24.0822ZM92.7279 18.5346H99.7002V16.0552H90.1035V33.5357H99.7002V31.0563H92.7279V25.2144H99.4974V22.7349H92.7279V18.5346ZM117.357 18.5346H110.385V22.7349H117.154V25.2144H110.385V31.0563H117.357V33.5357H107.76V16.0552H117.357V18.5346Z" fill="black"/>
</svg>
